<svg xmlns="http://www.w3.org/2000/svg" viewBox="0 0 320.1 299.29"><defs><style>.aa4bc044-4c5f-4f2c-80ee-06e33017c00f{fill:#1F313F;}.\30 97d0304-7ca7-41b4-b6ef-b7e8f1ca4de2{fill:#D5D5D3;}.\30 5b9d919-cb05-4f89-9119-a37649b8e39e{fill:#FDD24E;}</style></defs><title>Asset 2</title><g id="1ca3f6e1-e889-42f1-82aa-fa2156488893" data-name="Layer 2"><g id="fcf0c7c2-bff4-4a59-9fc8-14fa45ab3076" data-name="Layer 1"><path class="aa4bc044-4c5f-4f2c-80ee-06e33017c00f" d="M0,120.29H320a0,0,0,0,1,0,0v129a50,50,0,0,1-50,50H50a50,50,0,0,1-50-50v-129A0,0,0,0,1,0,120.29Z"/><path class="097d0304-7ca7-41b4-b6ef-b7e8f1ca4de2" d="M177.05,272.6l136-136a23.9,23.9,0,0,0,0-33.9l-22.6-22.6a23.9,23.9,0,0,0-33.9,0l-96.5,96.3L63.65,80a23.9,23.9,0,0,0-33.9,0L7.05,102.6a23.9,23.9,0,0,0,0,33.9l136,136A23.93,23.93,0,0,0,177.05,272.6Z"/><path class="05b9d919-cb05-4f89-9119-a37649b8e39e" d="M143.05,199.55l-136-136a23.9,23.9,0,0,1,0-33.9l22.6-22.6a23.9,23.9,0,0,1,33.9,0l96.4,96.4,96.4-96.4a23.9,23.9,0,0,1,33.9,0l22.8,22.5a23.9,23.9,0,0,1,0,33.9l-136,136a23.93,23.93,0,0,1-34,.1Z"/></g></g></svg>